<?xml version="1.0" encoding="utf-8"?>
<!-- Generator: Adobe Illustrator 20.1.0, SVG Export Plug-In . SVG Version: 6.00 Build 0)  -->
<svg version="1.1" id="Layer_1" xmlns="http://www.w3.org/2000/svg" xmlns:xlink="http://www.w3.org/1999/xlink" x="0px" y="0px"
	 viewBox="0 0 500 250" style="enable-background:new 0 0 500 250;" xml:space="preserve">
<style type="text/css">
	.st0{fill:#00008B;}
	.st1{fill:#FFFFFF;}
	.st2{fill:#FF0000;}
</style>
<g>
	<polygon class="st0" points="0,83.33 0,111.02 55.38,83.33 	"/>
	<polygon class="st0" points="222.05,0 145.83,0 145.83,38.11 	"/>
	<polygon class="st0" points="104.17,0 27.95,0 104.17,38.11 	"/>
	<polygon class="st0" points="0,13.98 0,41.67 55.38,41.67 	"/>
	<path class="st0" d="M250,0v13.98l-55.38,27.69H250V50v25v8.33h-55.38L250,111.02v4.66V125h-27.95l-76.22-38.11V125h-8.33h-25
		h-8.33V86.89L27.95,125h-9.32H0v125h500V0H250z M141.27,221.29L125,204.17l-16.27,17.12l3.24-23.39l-23.53-2.05l20.31-12.05
		l-13.07-19.67l22.09,8.36L125,150l7.23,22.48l22.09-8.36l-13.07,19.67l20.31,12.05l-23.53,2.05L141.27,221.29z M361.04,30.53
		l10.52,3.98L375,23.81l3.44,10.71l10.52-3.98l-6.22,9.37l9.67,5.74l-11.2,0.97l1.54,11.14L375,49.6l-7.75,8.15l1.54-11.14
		l-11.2-0.97l9.67-5.74L361.04,30.53z M320.25,125.46l-7.75-8.15l-7.75,8.15l1.54-11.14l-11.2-0.97l9.67-5.74l-6.22-9.37l10.52,3.98
		l3.44-10.71l3.44,10.71l10.52-3.98l-6.22,9.37l9.67,5.74l-11.2,0.97L320.25,125.46z M382.75,224.42l-7.75-8.15l-7.75,8.15
		l1.54-11.14l-11.2-0.97l9.67-5.74l-6.22-9.37l10.52,3.98l3.44-10.71l3.44,10.71l10.52-3.98l-6.22,9.37l9.67,5.74l-11.2,0.97
		L382.75,224.42z M406.12,143.84l-6.12-3.8l-6.12,3.8l1.72-7l-5.5-4.65l7.19-0.53L400,125l2.72,6.67l7.19,0.53l-5.5,4.65
		L406.12,143.84z M438.3,108.8l-7.75-8.15l-7.75,8.15l1.54-11.14l-11.2-0.97l9.67-5.74l-6.22-9.37l10.52,3.98l3.44-10.71L434,85.56
		l10.52-3.98l-6.22,9.37l9.67,5.74l-11.2,0.97L438.3,108.8z"/>
	<polygon class="st1" points="141.25,183.79 154.32,164.12 132.23,172.48 125,150 117.77,172.48 95.68,164.12 108.75,183.79 
		88.44,195.84 111.97,197.89 108.73,221.29 125,204.17 141.27,221.29 138.03,197.89 161.56,195.84 	"/>
	<polygon class="st1" points="382.74,206.57 388.96,197.2 378.44,201.18 375,190.48 371.56,201.18 361.04,197.2 367.26,206.57 
		357.59,212.31 368.79,213.28 367.25,224.42 375,216.27 382.75,224.42 381.21,213.28 392.41,212.31 	"/>
	<polygon class="st1" points="320.24,107.61 326.46,98.24 315.94,102.22 312.5,91.52 309.06,102.22 298.54,98.24 304.76,107.61 
		295.09,113.35 306.29,114.32 304.75,125.46 312.5,117.31 320.25,125.46 318.71,114.32 329.91,113.35 	"/>
	<polygon class="st1" points="368.79,46.61 367.25,57.76 375,49.6 382.75,57.76 381.21,46.61 392.41,45.64 382.74,39.9 
		388.96,30.53 378.44,34.52 375,23.81 371.56,34.52 361.04,30.53 367.26,39.9 357.59,45.64 	"/>
	<polygon class="st1" points="438.29,90.94 444.52,81.57 434,85.56 430.56,74.85 427.11,85.56 416.59,81.57 422.82,90.94 
		413.15,96.68 424.35,97.66 422.81,108.8 430.56,100.64 438.3,108.8 436.76,97.66 447.96,96.68 	"/>
	<polygon class="st1" points="402.72,131.67 400,125 397.28,131.67 390.09,132.2 395.6,136.85 393.88,143.84 400,140.05 
		406.12,143.84 404.4,136.85 409.91,132.2 	"/>
	<polygon class="st1" points="137.5,125 145.83,125 145.83,86.89 137.5,82.73 	"/>
	<polygon class="st1" points="145.83,38.11 145.83,0 137.5,0 137.5,42.27 	"/>
	<polygon class="st1" points="250,50 250,41.67 194.62,41.67 177.95,50 	"/>
	<polygon class="st1" points="112.5,42.27 112.5,0 104.17,0 104.17,38.11 	"/>
	<polygon class="st1" points="55.38,41.67 0,41.67 0,50 72.05,50 	"/>
	<polygon class="st1" points="72.05,75 0,75 0,83.33 55.38,83.33 	"/>
	<polygon class="st1" points="194.62,83.33 250,83.33 250,75 177.95,75 	"/>
	<polygon class="st1" points="104.17,86.89 104.17,125 112.5,125 112.5,82.73 	"/>
	<polygon class="st1" points="250,115.68 250,111.02 194.62,83.33 185.3,83.33 	"/>
	<polygon class="st1" points="104.17,41.67 104.17,38.11 27.95,0 0,0 83.33,41.67 	"/>
	<polygon class="st1" points="145.83,83.33 145.83,86.89 222.05,125 250,125 166.67,83.33 	"/>
	<polygon class="st1" points="64.7,41.67 0,9.32 0,13.98 55.38,41.67 	"/>
	<polygon class="st1" points="137.5,75 137.5,82.73 145.83,86.89 145.83,83.33 166.67,83.33 185.3,83.33 194.62,83.33 177.95,75 	
		"/>
	<polygon class="st1" points="112.5,42.27 104.17,38.11 104.17,41.67 83.33,41.67 64.7,41.67 55.38,41.67 72.05,50 112.5,50 	"/>
	<polygon class="st1" points="101.97,83.33 18.63,125 27.95,125 104.17,86.89 104.17,83.33 	"/>
	<polygon class="st1" points="145.83,41.67 148.03,41.67 231.37,0 222.05,0 145.83,38.11 	"/>
	<polygon class="st1" points="194.62,41.67 250,13.98 250,0 166.67,41.67 	"/>
	<polygon class="st1" points="55.38,83.33 0,111.02 0,125 83.33,83.33 	"/>
	<polygon class="st1" points="148.03,41.67 145.83,41.67 145.83,38.11 137.5,42.27 137.5,50 177.95,50 194.62,41.67 166.67,41.67 	
		"/>
	<polygon class="st1" points="112.5,75 72.05,75 55.38,83.33 83.33,83.33 101.97,83.33 104.17,83.33 104.17,86.89 112.5,82.73 	"/>
	<g>
		<polygon class="st2" points="137.5,50 137.5,42.27 137.5,0 112.5,0 112.5,42.27 112.5,50 72.05,50 0,50 0,75 72.05,75 112.5,75 
			112.5,82.73 112.5,125 137.5,125 137.5,82.73 137.5,75 177.95,75 250,75 250,50 177.95,50 		"/>
		<polygon class="st2" points="83.33,41.67 0,0 0,9.32 64.7,41.67 		"/>
		<polygon class="st2" points="250,0 231.37,0 148.03,41.67 166.67,41.67 		"/>
		<polygon class="st2" points="166.67,83.33 250,125 250,115.68 185.3,83.33 		"/>
		<polygon class="st2" points="0,125 18.63,125 101.97,83.33 83.33,83.33 		"/>
	</g>
</g>
</svg>
