<?xml version="1.0" encoding="utf-8"?>
<!-- Generator: Adobe Illustrator 20.1.0, SVG Export Plug-In . SVG Version: 6.00 Build 0)  -->
<svg version="1.1" id="Layer_1" xmlns="http://www.w3.org/2000/svg" xmlns:xlink="http://www.w3.org/1999/xlink" x="0px" y="0px"
	 viewBox="0 0 500 300" style="enable-background:new 0 0 500 300;" xml:space="preserve">
<style type="text/css">
	.st0{fill:#FFFFFF;}
	.st1{fill:#FF0000;}
</style>
<rect class="st0" width="500" height="300"/>
<g>
	<rect x="375" class="st1" width="125" height="300"/>
	<rect class="st1" width="125" height="300"/>
</g>
<path class="st1" d="M250,48.4l-17.1,31.8c-1.9,3.5-5.4,3.1-8.9,1.2L211.6,75l9.2,48.9c1.9,8.9-4.3,8.9-7.3,5.1L192,104.9l-3.5,12.2
	c-0.4,1.6-2.2,3.3-4.8,2.9l-27.2-5.7l7.2,26c1.5,5.8,2.7,8.2-1.6,9.7l-9.7,4.6l46.9,38.1c1.9,1.4,2.8,4,2.1,6.4l-4.1,13.5
	c16.1-1.9,30.6-4.7,46.8-6.4c1.4-0.1,3.8,2.2,3.8,3.9l-2.1,49.4h7.9l-1.2-49.3c0-1.6,2.2-4.1,3.6-4c16.2,1.7,30.6,4.5,46.8,6.4
	l-4.1-13.5c-0.7-2.4,0.3-4.9,2.1-6.4l46.9-38.1l-9.7-4.6c-4.3-1.5-3.1-3.9-1.5-9.7l7.2-26l-27.2,5.7c-2.7,0.4-4.4-1.3-4.8-2.9
	l-3.5-12.2L286.4,129c-3.1,3.9-9.3,3.9-7.3-5.1l9.2-48.9l-12.4,6.4c-3.5,1.9-6.9,2.2-8.9-1.2L250,48.4z"/>
</svg>
