<?xml version="1.0" encoding="utf-8"?>
<!-- Generator: Adobe Illustrator 20.1.0, SVG Export Plug-In . SVG Version: 6.00 Build 0)  -->
<svg version="1.1" id="Layer_1" xmlns="http://www.w3.org/2000/svg" xmlns:xlink="http://www.w3.org/1999/xlink" x="0px" y="0px"
	 viewBox="0 0 500 300" style="enable-background:new 0 0 500 300;" xml:space="preserve">
<style type="text/css">
	.st0{fill:#2C3686;}
	.st1{fill:#EEC30F;}
</style>
<g>
	<rect class="st0" width="500" height="300"/>
	<path class="st0" d="M250,150.01"/>
</g>
<g>
	<polygon class="st1" points="240.57,66.43 250.06,59.5 259.56,66.43 255.94,55.22 265.59,48.3 253.7,48.3 250.06,36.95 
		246.42,48.31 234.54,48.3 244.18,55.22 	"/>
	<polygon class="st1" points="191.43,79.63 200.92,72.7 210.41,79.63 206.81,68.43 216.44,61.5 204.56,61.5 200.92,50.14 
		197.28,61.51 185.4,61.5 195.03,68.43 	"/>
	<polygon class="st1" points="164.97,86.18 161.33,97.55 149.45,97.53 159.09,104.46 155.47,115.67 164.97,108.74 174.46,115.67 
		170.85,104.46 180.49,97.53 168.61,97.53 	"/>
	<polygon class="st1" points="151.78,157.82 161.27,164.75 157.66,153.54 167.3,146.61 155.42,146.61 151.78,135.25 148.14,146.63 
		136.25,146.61 145.9,153.54 142.28,164.75 	"/>
	<polygon class="st1" points="168.61,195.83 164.97,184.48 161.33,195.85 149.45,195.83 159.09,202.76 155.47,213.97 164.97,207.03 
		174.46,213.97 170.85,202.76 180.49,195.83 	"/>
	<polygon class="st1" points="204.63,231.86 200.99,220.52 197.36,231.87 185.47,231.86 195.11,238.79 191.5,249.99 201,243.06 
		210.49,249.99 206.88,238.79 216.52,231.86 	"/>
	<polygon class="st1" points="253.71,244.91 250.07,233.56 246.44,244.92 234.55,244.91 244.19,251.84 240.58,263.05 250.07,256.12 
		259.56,263.05 255.95,251.84 265.59,244.91 	"/>
	<polygon class="st1" points="302.78,231.86 299.15,220.52 295.51,231.87 283.63,231.86 293.26,238.79 289.66,249.99 299.15,243.06 
		308.65,249.99 305.03,238.79 314.67,231.86 	"/>
	<polygon class="st1" points="338.82,195.83 335.17,184.48 331.53,195.85 319.65,195.83 329.3,202.76 325.68,213.97 335.17,207.03 
		344.67,213.97 341.05,202.76 350.69,195.83 	"/>
	<polygon class="st1" points="363.75,146.47 351.86,146.47 348.22,135.12 344.58,146.49 332.7,146.47 342.34,153.4 338.73,164.61 
		348.22,157.67 357.71,164.61 354.1,153.4 	"/>
	<polygon class="st1" points="325.68,115.52 335.17,108.59 344.67,115.52 341.05,104.31 350.69,97.4 338.82,97.4 335.17,86.04 
		331.53,97.41 319.65,97.4 329.3,104.31 	"/>
	<polygon class="st1" points="299.29,50.15 295.66,61.52 283.77,61.5 293.4,68.44 289.79,79.65 299.3,72.7 308.78,79.65 
		305.18,68.44 314.82,61.5 302.92,61.5 	"/>
</g>
</svg>
