<?xml version="1.0" encoding="utf-8"?>
<!-- Generator: Adobe Illustrator 20.1.0, SVG Export Plug-In . SVG Version: 6.00 Build 0)  -->
<svg version="1.1" id="Layer_1" xmlns="http://www.w3.org/2000/svg" xmlns:xlink="http://www.w3.org/1999/xlink" x="0px" y="0px"
	 viewBox="0 0 500 300" style="enable-background:new 0 0 500 300;" xml:space="preserve">
<style type="text/css">
	.st0{fill:#FFFFFF;}
	.st1{fill:#29408E;}
	.st2{fill:#C10012;}
</style>
<rect y="0.17" class="st0" width="500" height="300"/>
<polygon class="st1" points="54.77,0.17 192.46,81.43 192.46,0.17 "/>
<polygon class="st1" points="307.18,78.22 307.18,0.17 437.44,0.17 "/>
<polygon class="st1" points="307.18,300.17 307.18,222.05 439.07,300.17 "/>
<polygon class="st1" points="192.46,223.4 192.46,300.17 64.8,300.17 "/>
<polygon class="st1" points="0,40.74 0,99.3 98.75,99.3 "/>
<polygon class="st1" points="97.95,203.23 0,203.23 0,262.2 "/>
<polygon class="st1" points="399.64,203.23 500,203.23 500,262.63 "/>
<polygon class="st1" points="500,39.29 500,99.29 400.15,99.29 "/>
<polygon class="st2" points="338.01,99.29 307.18,99.29 307.18,93.17 463.55,0.17 500,0.17 500,2.6 "/>
<polygon class="st2" points="159.35,203.23 192.46,203.23 192.46,207.98 38.17,300.17 0,300.17 "/>
<polygon class="st2" points="0,0.17 0,26.33 120.25,99.29 160.96,99.29 "/>
<polygon class="st2" points="339.27,203.23 379.97,203.23 500,275.84 500,300.17 "/>
<polygon class="st2" points="280.6,300.17 219.04,300.17 219.04,181.17 0,181.17 0,121.35 219.04,121.35 219.04,0.17 280.6,0.17 
	280.6,121.35 500,121.35 500,181.17 280.6,181.17 "/>
</svg>
