<?xml version="1.0" encoding="UTF-8"?>
<svg width="16px" height="16px" viewBox="0 0 16 16" version="1.1" xmlns="http://www.w3.org/2000/svg" xmlns:xlink="http://www.w3.org/1999/xlink">
    <!-- Generator: Sketch 55.2 (78181) - https://sketchapp.com -->
    <title>Glyphs/Mail/Light</title>
    <desc>Created with Sketch.</desc>
    <g id="Glyphs/Mail/Light" stroke="none" stroke-width="1" fill="none" fill-rule="evenodd">
        <path d="M15.7036314,13.3864813 C15.6707048,13.3952991 15.6361297,13.4 15.6005003,13.4 L0.399499651,13.4 C0.363820255,13.4 0.329233298,13.3953164 0.296318489,13.3865314 L0.296318489,13.3865314 L5.03528032,8.65008433 L6.04151978,9.68093246 C7.12243599,10.7882836 8.87749176,10.7883576 9.95848022,9.68093246 L10.9647197,8.65008433 L15.7036314,13.3864813 L15.7036314,13.3864813 L15.7036314,13.3864813 Z M16,12.88071 L16,3.48540258 C16,3.43747185 15.9915514,3.39149823 15.9760615,3.34889505 C15.9524389,3.40361061 11.2440705,8.24425161 11.2440705,8.24425161 L15.9864448,12.9841093 C15.9952838,12.9511285 16,12.9164677 16,12.88071 L16,12.88071 Z M-3.55271368e-15,12.9206444 L-3.55271368e-15,3.52533692 C-3.55271368e-15,3.47741631 0.00847029796,3.43146565 0.0239825228,3.38888846 C0.0475858328,3.44357324 4.75592949,8.28418595 4.75592949,8.28418595 L0.0135250241,13.0240738 C0.00470318415,12.9910782 -3.55271368e-15,12.956406 -3.55271368e-15,12.9206444 L-3.55271368e-15,12.9206444 Z M15.7229794,3.00758411 L9.67216744,9.20142186 C8.74815401,10.148033 7.25178439,10.1479699 6.32783256,9.20142186 L0.2779889,3.00857527 C0.259722538,2.98987713 15.7229794,3.00758411 15.7229794,3.00758411 L15.7229794,3.00758411 Z" id="Mail-Icon" fill="#111111"></path>
    </g>
</svg>