<?xml version="1.0" encoding="UTF-8"?>
<svg width="16px" height="16px" viewBox="0 0 16 16" version="1.1" xmlns="http://www.w3.org/2000/svg" xmlns:xlink="http://www.w3.org/1999/xlink">
    <!-- Generator: Sketch 55.2 (78181) - https://sketchapp.com -->
    <title>Glyphs/Phone/Light</title>
    <desc>Created with Sketch.</desc>
    <g id="Glyphs/Phone/Light" stroke="none" stroke-width="1" fill="none" fill-rule="evenodd">
        <path d="M1.28317458,6.46204268 C0.354153327,4.77774604 0,3.41991433 0,2.50279223 C0,1.58567013 0.225329197,1.32262825 0.453976488,1.11012534 C0.682623779,0.897622424 1.71366241,0.261954052 1.88933633,0.143404146 C2.06501026,0.02485424 2.73549397,-0.205534718 3.15596443,0.39931806 C3.5764349,1.00417084 4.36823109,2.21858886 4.91412608,3.02534572 C5.7707405,4.16805352 5.08829525,4.66968344 4.8678612,4.97034499 C4.46223235,5.52360342 4.22867132,5.66006043 4.22867132,6.33941013 C4.22867132,7.01875983 6.12726657,8.94881661 6.58124306,9.42436141 C7.0317662,9.89628878 8.92355413,11.5546989 9.50975391,11.6433829 C10.1000775,11.7326909 10.8903541,11.1077119 11.0583777,10.9492306 C11.9131303,10.2929959 12.3956215,10.7905177 12.7893374,11.0067797 C13.1830532,11.2230417 14.9619391,12.3315116 15.5131963,12.7051539 C16.0320266,13.0787963 15.9995997,13.6562435 15.9995997,13.6562435 C15.9995997,13.6562435 14.9295122,15.3546178 14.7998047,15.5584227 C14.6376702,15.7961951 14.2485475,16 13.3730214,16 C12.4974953,16 11.5620375,15.8400904 9.3388748,14.6174393 C7.51979793,13.6170193 5.78570986,12.0504291 4.87775689,11.133307 C3.93737702,10.2161849 2.34437844,8.38598371 1.28317458,6.46204268 Z" id="Icon" fill="#111111"></path>
    </g>
</svg>