<?xml version="1.0" encoding="UTF-8"?>
<svg id="Layer_1" data-name="Layer 1" xmlns="http://www.w3.org/2000/svg" viewBox="0 0 75 75">
  <defs>
    <style>
      .cls-1 {
        fill: #231f20;
      }
    </style>
  </defs>
  <path class="cls-1" d="M32.57,37.28v-2.28l-6.79,3.92,6.79,3.92v-2.28h14.96c.91,0,1.64-.73,1.64-1.64s-.73-1.64-1.64-1.64h-14.96Z"/>
  <path class="cls-1" d="M66.14,18.99c-.13-.33-.36-.62-.69-.79l-9.48-5.09c-.22-.12-.47-.18-.72-.18H20.17c-.25,0-.49,.06-.7,.17l-9.71,5.09c-.1,.05-.18,.11-.26,.18-.76,.46-1.28,1.29-1.28,2.24V57.22c0,1.44,1.17,2.62,2.62,2.62h53.27c1.44,0,2.62-1.17,2.62-2.62V20.61c0-.61-.22-1.17-.58-1.62Zm-7.48-1h-15l-1.86-2.53h12.15l4.71,2.53Zm-37.17-2.53h12.17l-2,2.53h-15l4.82-2.53ZM63.66,56.78h-20.2v-7.07h-11.99v7.07H11.27V21.05H31.47v5.06h11.99v-5.06h20.2V56.78Z"/>
</svg>