<?xml version="1.0" encoding="UTF-8"?>
<svg id="Layer_1" data-name="Layer 1" xmlns="http://www.w3.org/2000/svg" viewBox="0 0 75 75">
  <defs>
    <style>
      .cls-1 {
        fill: #231f20;
      }
    </style>
  </defs>
  <path class="cls-1" d="M18.49,49.2c-2.95,0-5.34,2.39-5.34,5.33,0,2.95,2.39,5.33,5.33,5.34,2.95,0,5.33-2.39,5.34-5.33,0-2.95-2.39-5.33-5.33-5.34Zm0,7.52c-1.2,0-2.18-.98-2.18-2.18,0-1.2,.98-2.18,2.18-2.18s2.18,.98,2.18,2.18c0,1.2-.98,2.18-2.18,2.18Z"/>
  <path class="cls-1" d="M59.02,49.03c-2.95,0-5.34,2.39-5.34,5.33,0,2.95,2.39,5.33,5.33,5.34,2.95,0,5.33-2.39,5.34-5.33,0-2.95-2.39-5.33-5.33-5.34Zm0,7.52c-1.2,0-2.18-.98-2.18-2.18,0-1.2,.98-2.18,2.18-2.18s2.18,.98,2.18,2.18c0,1.2-.98,2.18-2.18,2.18Z"/>
  <path class="cls-1" d="M73.35,38.28l-5.73-2.19-.94-.35s-.04-.02-.04-.05l-1.26-3.52-.88-2.46-.81-2.25-1.03-2.88c-.35-.97-1.26-1.62-2.29-1.62h-12.85v-7.6c0-1.34-1.09-2.43-2.43-2.43H2.57c-1.34,0-2.43,1.09-2.43,2.43V52.07c0,1.34,1.09,2.43,2.43,2.43H10.87c0-.83,.13-1.62,.38-2.36H2.57s-.08-.03-.08-.07V15.37s.04-.07,.08-.07H45.08s.08,.04,.08,.07V52.07s-.04,.07-.08,.07H25.73c.25,.74,.38,1.54,.38,2.36h18.97s.07,0,.11,0v.03h6.21c0-.05,0-.11,0-.17,0-.76,.11-1.5,.32-2.19h-4.18V25.33h12.83s.06,.02,.07,.05l.75,2.09h-6.63c-1.06,0-1.92,.87-1.92,1.92v6.49c0,1.06,.86,1.93,1.92,1.93h11c.09,.05,.19,.09,.29,.13l6.66,2.55s.05,.04,.05,.07v11.54s-.03,.08-.07,.08h-6.16c.21,.7,.31,1.44,.31,2.19,0,.05,0,.11,0,.16h5.85c1.34,0,2.43-1.09,2.43-2.43v-11.54c0-1-.63-1.91-1.56-2.28Zm-18.47-2.72v-5.85h7.11l2.1,5.85h-9.21Z"/>
</svg>