<?xml version="1.0" encoding="UTF-8"?>
<svg id="FINALS" xmlns="http://www.w3.org/2000/svg" viewBox="0 0 70 70">
  <path d="M61.94,16.2c-9.62,0-13.69-9.93-13.69-13.88,0-.28-.22-.5-.5-.5h-11.95c-.28,0-.5.22-.5.5v45.25c0,5.52-3.92,8.81-7.72,8.81-1.89,0-8.04-.63-8.04-8.67,0-2.13.83-4.01,2.41-5.44,1.97-1.79,4.84-2.64,7.9-2.35.14.01.28-.03.38-.13.1-.09.16-.23.16-.37v-10.55c0-.26-.2-.47-.45-.5-4.69-.46-11.59,1.04-16.43,5.43-3.95,3.58-5.95,8.4-5.95,14.32,0,14.72,11.97,20.06,20.02,20.06s19.86-6.55,19.86-20.62v-24.34c2.01,1.64,7.38,5.3,14.56,4.43.25-.03.44-.24.44-.5v-10.46c0-.28-.22-.5-.5-.5Z"/>
</svg>