<?xml version="1.0" encoding="UTF-8"?>
<svg id="Layer_1" data-name="Layer 1" xmlns="http://www.w3.org/2000/svg" viewBox="0 0 75 75">
  <path d="M56.31,16.45l-19.42-4.14-19.42,4.14s-5,32.69,19.42,42.83c24.42-10.14,19.42-42.83,19.42-42.83Zm-13.15,19.98c-3,0-4.72-1.79-6.22-3.82-1.44,2.01-3.28,3.82-6.46,3.82-2.91,0-6.04-2.34-6.04-6.12s3.14-6.11,6.04-6.11c3.2,0,4.93,1.81,6.42,3.83,1.76-2.35,3.63-3.83,6.26-3.83,3.46,0,6.17,2.7,6.17,6.14s-2.71,6.09-6.17,6.09Zm-7.83-6.1c-1.46,2.17-2.63,3.48-4.85,3.48-1.38,0-3.43-1.12-3.43-3.5s1.99-3.5,3.43-3.5c2.19,0,3.26,1.27,4.85,3.52Zm11.38,0c0,1.95-1.56,3.47-3.55,3.47s-3.07-1.27-4.66-3.52c1.76-2.55,3.03-3.47,4.66-3.47,1.99,0,3.55,1.55,3.55,3.52Z"/>
</svg>